# xmcd
#
# Track frame offsets:
#	150
#	14434
#	28156
#	43267
#	57596
#	74537
#	85459
#	97698
#	108714
#	120214
#	136495
#	150194
#	163187
#	175853
#	192522
#
# Disc length: 2707 seconds
#
# Revision: 0
# Processed by: cddbd v1.5.1PL0 Copyright (c) Steve Scherf et al.
# Submitted via: audiograbber 1.83.01
#
DISCID=cd0a910f
DTITLE=Various Artist - On The Road - Especialy For Truckers 4
DYEAR=2001
DGENRE=Country
TTITLE0=Simon - You Don't Know What You've Got
TTITLE1=Henny Weijmans - Bury My Heart
TTITLE2=Dixie Aces - Heart Is Right
TTITLE3=Major Dudee Band With Dick Van Altena - Come On Rosie
TTITLE4=Bobby Prince - 18 Yellow Roses
TTITLE5=The Locomotions - Move It
TTITLE6=Jack Jersey - Tonight Is Allright For Love
TTITLE7=Roland Konings and That's It - Bob To Me
TTITLE8=Simon - Wooden Heart
TTITLE9=The Walkers - High Time We Went
TTITLE10=Rocky Taylor - Sweet Rocking Angel
TTITLE11=Lafayette - Sweet Susannah
TTITLE12=Bobby Prins - Only A Fool
TTITLE13=Roland Konings - Drinking My Baby Goodbye
TTITLE14=The Tamara's - Quarter Master Stores
EXTD=
EXTT0=
EXTT1=
EXTT2=
EXTT3=
EXTT4=
EXTT5=
EXTT6=
EXTT7=
EXTT8=
EXTT9=
EXTT10=
EXTT11=
EXTT12=
EXTT13=
EXTT14=
PLAYORDER=
